<!DOCTYPE svg PUBLIC "-//W3C//DTD SVG 1.1//EN" "http://www.w3.org/Graphics/SVG/1.1/DTD/svg11.dtd">
<!-- Uploaded to: SVG Repo, www.svgrepo.com, Transformed by: SVG Repo Mixer Tools -->
<svg width="800px" height="800px" viewBox="-4.8 -4.8 57.60 57.60" xmlns="http://www.w3.org/2000/svg" fill="#f52929" stroke="#f52929">
<g id="SVGRepo_bgCarrier" stroke-width="0"/>
<g id="SVGRepo_tracerCarrier" stroke-linecap="round" stroke-linejoin="round"/>
<g id="SVGRepo_iconCarrier">
<defs>
<style>.a{fill:none;stroke:#f52424;stroke-linecap:round;stroke-linejoin:round;}</style>
</defs>
<path class="a" d="M15.0769,28.7177V19.2769l4.72,9.4408,4.72-9.4408v9.4408m5.339,0v-4.72m3.0682-4.72-3.0682,4.72-3.1862-4.72m5.4474,22.346a1.5393,1.5393,0,0,1-2.08.72L23.28,39.1913a5.5324,5.5324,0,0,0-10.0281-4.6761L6.4005,31.3205A1.5807,1.5807,0,0,1,5.636,29.22C9.0907,21.8166,12.8641,13.7163,16.013,6.971L20.0059,5.5l1.3979,3.8926,3.88-1.4313,1.3979,3.8926,3.8505-1.42L31.92,14.2962l3.88-1.4313,1.3979,3.8926,3.88-1.4313,1.434,3.9981Z"/>
</g>
</svg>