<svg width="45" height="30" viewBox="0 0 45 30" fill="none" xmlns="http://www.w3.org/2000/svg">
<path d="M6.47573 29.9084V27.263C6.47573 26.2484 5.87497 25.5873 4.88891 25.5873C4.37101 25.5873 3.81687 25.764 3.43052 26.3325C3.13014 25.8471 2.70547 25.5873 2.05811 25.5873C1.56921 25.5656 1.10234 25.7975 0.815163 26.2048V25.6725H0V29.9053H0.815163V27.4833C0.815163 26.7381 1.24398 26.3815 1.84473 26.3815C2.44549 26.3815 2.78833 26.7786 2.78833 27.4833V29.9084H3.6035V27.4833C3.6035 26.7381 4.03231 26.3815 4.63307 26.3815C5.23382 26.3815 5.57667 26.7786 5.57667 27.4833V29.9084H6.47573ZM19.8602 25.7193H18.3583V24.4418H17.5452V25.7193H16.6875V26.4645H17.5452V28.4532C17.5452 29.423 17.888 29.9968 18.9176 29.9968C19.3076 29.9884 19.6898 29.8825 20.0311 29.6881L19.7731 28.9429C19.5417 29.0915 19.2733 29.1681 19.0004 29.1632C18.5716 29.1632 18.3572 28.8982 18.3572 28.4574V26.4304H19.8591V25.7246L19.8602 25.7193ZM27.496 25.5873C27.0443 25.577 26.6206 25.8115 26.3804 26.2048V25.6725H25.5653V29.9053H26.3804V27.528C26.3804 26.8222 26.7233 26.3815 27.2816 26.3815C27.4699 26.3893 27.6569 26.419 27.8388 26.4698L28.0967 25.6757C27.9 25.6247 27.6987 25.5951 27.496 25.5873ZM15.9563 26.028C15.5275 25.7193 14.9267 25.5873 14.2835 25.5873C13.2539 25.5873 12.6107 26.0727 12.6107 26.9106C12.6107 27.6164 13.083 28.0124 13.9831 28.1455L14.4119 28.1891C14.8842 28.2775 15.1846 28.4542 15.1846 28.6746C15.1846 28.9833 14.8418 29.2069 14.1975 29.2069C13.7056 29.2173 13.2238 29.0626 12.8251 28.7661L12.3963 29.4273C12.997 29.868 13.7262 29.9595 14.1571 29.9595C15.3586 29.9595 16.0019 29.3868 16.0019 28.5926C16.0019 27.8474 15.484 27.4908 14.5859 27.3577L14.1571 27.3141C13.7708 27.2704 13.4321 27.1373 13.4321 26.8733C13.4321 26.5646 13.7749 26.341 14.2472 26.341C14.7651 26.341 15.2768 26.5614 15.5347 26.6934L15.9563 26.028ZM28.3971 27.7921C28.3971 29.0696 29.2123 29.9968 30.5422 29.9968C31.143 29.9968 31.5718 29.8648 32.0006 29.5114L31.5718 28.8502C31.2682 29.103 30.8904 29.2429 30.4997 29.2473C29.7747 29.2473 29.2123 28.6746 29.2123 27.8368C29.2123 26.9989 29.7674 26.4304 30.4997 26.4304C30.8904 26.4349 31.2682 26.5748 31.5718 26.8275L32.0006 26.1664C31.5718 25.8141 31.143 25.681 30.5422 25.681C29.2547 25.5926 28.3971 26.5188 28.3971 27.7974V27.7921ZM22.6485 25.5873C21.447 25.5873 20.6318 26.4688 20.6318 27.7921C20.6318 29.1153 21.4894 29.9968 22.7334 29.9968C23.3386 30.0099 23.9296 29.8076 24.4062 29.4241L23.9774 28.8066C23.6327 29.0811 23.2118 29.2355 22.7759 29.2473C22.2186 29.2473 21.6179 28.895 21.5329 28.1455H24.5792V27.7931C24.5792 26.4698 23.8065 25.5884 22.6485 25.5884V25.5873ZM22.606 26.3815C23.2068 26.3815 23.6356 26.7786 23.6781 27.4397H21.448C21.5764 26.8222 21.9659 26.3815 22.606 26.3815ZM11.4951 27.7921V25.6757H10.68V26.2079C10.3796 25.8109 9.95493 25.5905 9.35003 25.5905C8.19203 25.5905 7.33336 26.5167 7.33336 27.7952C7.33336 29.0738 8.19099 30 9.35003 30C9.95079 30 10.3796 29.7796 10.68 29.3825V29.9148H11.4951V27.7921ZM8.19203 27.7921C8.19203 26.9979 8.66434 26.3815 9.47951 26.3815C10.2522 26.3815 10.7225 26.9989 10.7225 27.7921C10.7225 28.6299 10.2046 29.2026 9.47951 29.2026C8.66434 29.2463 8.19203 28.5852 8.19203 27.7921ZM39.8953 25.5873C39.4437 25.577 39.02 25.8115 38.7798 26.2048V25.6725H37.9646V29.9053H38.7788V27.528C38.7788 26.8222 39.1216 26.3815 39.6799 26.3815C39.8683 26.3893 40.0552 26.419 40.2372 26.4698L40.4951 25.6757C40.2984 25.6247 40.097 25.5951 39.8943 25.5873H39.8953ZM36.7207 27.7921V25.6757H35.9055V26.2079C35.6051 25.8109 35.1805 25.5905 34.5756 25.5905C33.4175 25.5905 32.5589 26.5167 32.5589 27.7952C32.5589 29.0738 33.4165 30 34.5756 30C35.1763 30 35.6051 29.7796 35.9055 29.3825V29.9148H36.7207V27.7921ZM33.4175 27.7921C33.4175 26.9979 33.8899 26.3815 34.705 26.3815C35.4777 26.3815 35.948 26.9989 35.948 27.7921C35.948 28.6299 35.4301 29.2026 34.705 29.2026C33.8899 29.2463 33.4175 28.5852 33.4175 27.7921ZM45.0007 27.7921V24H44.1856V26.2048C43.8852 25.8077 43.4605 25.5873 42.8556 25.5873C41.6976 25.5873 40.839 26.5135 40.839 27.7921C40.839 29.0706 41.6966 29.9968 42.8556 29.9968C43.4564 29.9968 43.8852 29.7764 44.1856 29.3793V29.9116H45.0007V27.7921ZM41.6976 27.7921C41.6976 26.9979 42.1699 26.3815 42.9851 26.3815C43.7578 26.3815 44.228 26.9989 44.228 27.7921C44.228 28.6299 43.7101 29.2026 42.9851 29.2026C42.1689 29.2473 41.6966 28.5862 41.6966 27.7921H41.6976Z" fill="black"/>
<path d="M28.0975 2.24622H17.9748V18.7572H28.0975V2.24622Z" fill="#FF5F00"/>
<path d="M18.9961 10.5018C18.9968 7.28386 20.4688 4.2429 22.9924 2.24629C18.687 -1.13884 12.5029 -0.646783 8.78697 3.3766C5.07101 7.39999 5.07101 13.6036 8.78697 17.627C12.5029 21.6504 18.687 22.1424 22.9924 18.7573C20.4688 16.7607 18.9968 13.7197 18.9961 10.5018Z" fill="#EB001B"/>
<path d="M40 10.5018C40.0029 14.5198 37.7107 18.1865 34.0974 19.9438C30.4841 21.7012 26.1844 21.2404 23.0255 18.7573C25.5498 16.7612 27.022 13.7199 27.022 10.5018C27.022 7.28369 25.5498 4.24243 23.0255 2.2463C26.1844 -0.236793 30.4841 -0.697574 34.0974 1.05976C37.7107 2.81709 40.0029 6.4838 40 10.5018Z" fill="#F79E1B"/>
</svg>
