<svg width="50" height="13" viewBox="0 0 50 13" fill="none" xmlns="http://www.w3.org/2000/svg">
<g clip-path="url(#clip0_1078_21)">
<path fill-rule="evenodd" clip-rule="evenodd" d="M4.36296 2.85132H7.77961C9.61405 2.85132 10.3046 3.78 10.1979 5.14437C10.0215 7.39685 8.65979 8.64304 6.85357 8.64304H5.94164C5.69382 8.64304 5.52713 8.80708 5.4601 9.25158L5.07293 11.8357C5.04735 12.0032 4.95916 12.1003 4.82687 12.1135H2.68022C2.47825 12.1135 2.40681 11.9591 2.45973 11.6249L3.76854 3.3408C3.81969 3.00919 4.00137 2.85132 4.36296 2.85132Z" fill="#009EE3"/>
<path fill-rule="evenodd" clip-rule="evenodd" d="M19.1964 2.69788C20.3491 2.69788 21.4127 3.32317 21.2672 4.88157C21.0908 6.73365 20.0986 7.75847 18.5332 7.76288H17.1653C16.9686 7.76288 16.8733 7.92339 16.8222 8.25235L16.5576 9.93422C16.5179 10.1882 16.3874 10.3135 16.1951 10.3135H14.9225C14.7196 10.3135 14.6491 10.1838 14.6941 9.89365L15.7445 3.15296C15.7965 2.82135 15.9208 2.69788 16.1475 2.69788H19.1937H19.1964ZM17.1238 6.30679H18.1601C18.8083 6.28209 19.2387 5.83318 19.2819 5.02356C19.3084 4.5235 18.9706 4.16543 18.4335 4.16807L17.4581 4.17249L17.1238 6.30679ZM24.727 9.79752C24.8435 9.69169 24.9616 9.63701 24.9449 9.76753L24.9034 10.0797C24.8823 10.2429 24.9466 10.3293 25.0983 10.3293H26.229C26.4195 10.3293 26.5121 10.2526 26.5588 9.95803L27.2556 5.58536C27.2909 5.36575 27.2371 5.25816 27.0704 5.25816H25.8268C25.7148 5.25816 25.6601 5.32077 25.631 5.49187L25.5852 5.76086C25.5614 5.90109 25.497 5.92579 25.437 5.78468C25.2262 5.2855 24.6882 5.06148 23.9377 5.07912C22.1941 5.11528 21.0185 6.43908 20.8924 8.13594C20.7953 9.44827 21.7355 10.4793 22.9755 10.4793C23.8751 10.4793 24.2773 10.2147 24.7306 9.80016L24.727 9.79752ZM23.7798 9.1246C23.0293 9.1246 22.5063 8.52576 22.6148 7.79198C22.7233 7.0582 23.4253 6.45936 24.1758 6.45936C24.9264 6.45936 25.4494 7.0582 25.3409 7.79198C25.2324 8.52576 24.5312 9.1246 23.7798 9.1246ZM29.4684 5.24405H28.3218C28.0855 5.24405 27.9894 5.42043 28.0643 5.63739L29.4878 9.80546L28.0917 11.7889C27.9744 11.9548 28.0652 12.1056 28.2301 12.1056H29.5186C29.5937 12.1142 29.6697 12.1012 29.7376 12.0678C29.8055 12.0345 29.8623 11.9824 29.9014 11.9177L34.2794 5.63827C34.4143 5.44513 34.3508 5.24228 34.1294 5.24228H32.9097C32.7007 5.24228 32.6169 5.32519 32.497 5.49893L30.6713 8.14476L29.8555 5.49275C29.8079 5.33224 29.6889 5.24405 29.4693 5.24405H29.4684Z" fill="#113984"/>
<path fill-rule="evenodd" clip-rule="evenodd" d="M38.8337 2.69781C39.9864 2.69781 41.05 3.32311 40.9045 4.8815C40.7281 6.73358 39.736 7.7584 38.1705 7.76281H36.8035C36.6068 7.76281 36.5116 7.92332 36.4604 8.25229L36.1958 9.93415C36.1561 10.1882 36.0256 10.3134 35.8334 10.3134H34.5607C34.3579 10.3134 34.2873 10.1837 34.3323 9.89358L35.3844 3.15113C35.4365 2.81952 35.5608 2.69604 35.7875 2.69604H38.8337V2.69781ZM36.7612 6.30672H37.7974C38.4457 6.28203 38.8761 5.83312 38.9193 5.02349C38.9457 4.52343 38.6079 4.16536 38.0708 4.16801L37.0954 4.17242L36.7612 6.30672ZM44.3644 9.79745C44.4808 9.69162 44.599 9.63694 44.5822 9.76747L44.5408 10.0797C44.5196 10.2428 44.584 10.3293 44.7357 10.3293H45.8663C46.0568 10.3293 46.1494 10.2525 46.1962 9.95797L46.8929 5.58529C46.9282 5.36569 46.8744 5.25809 46.7077 5.25809H45.4659C45.3539 5.25809 45.2993 5.32071 45.2701 5.49181L45.2243 5.7608C45.2005 5.90103 45.1361 5.92572 45.0761 5.78461C44.8653 5.28543 44.3273 5.06142 43.5768 5.07906C41.8332 5.11522 40.6576 6.43901 40.5315 8.13587C40.4344 9.4482 41.3746 10.4792 42.6146 10.4792C43.5142 10.4792 43.9164 10.2146 44.3697 9.8001L44.3644 9.79745ZM43.4181 9.12453C42.6675 9.12453 42.1445 8.52569 42.253 7.79191C42.3615 7.05814 43.0635 6.4593 43.8141 6.4593C44.5646 6.4593 45.0876 7.05814 44.9791 7.79191C44.8706 8.52569 44.1686 9.12453 43.4181 9.12453ZM48.633 10.3363H47.3277C47.305 10.3373 47.2824 10.3333 47.2614 10.3246C47.2404 10.3158 47.2216 10.3025 47.2064 10.2857C47.1911 10.2688 47.1798 10.2488 47.1732 10.2271C47.1666 10.2054 47.1648 10.1824 47.1681 10.1599L48.3146 2.89625C48.3256 2.84667 48.353 2.80226 48.3923 2.77024C48.4317 2.73821 48.4808 2.72046 48.5316 2.71986H49.8368C49.8595 2.71884 49.8822 2.72285 49.9032 2.7316C49.9241 2.74036 49.9429 2.75363 49.9582 2.77048C49.9734 2.78733 49.9848 2.80734 49.9914 2.82908C49.998 2.85082 49.9997 2.87376 49.9965 2.89625L48.85 10.1599C48.8394 10.2098 48.8121 10.2546 48.7727 10.287C48.7333 10.3194 48.684 10.3374 48.633 10.3381V10.3363Z" fill="#009EE3"/>
<path fill-rule="evenodd" clip-rule="evenodd" d="M2.22603 0H5.6462C6.60929 0 7.75228 0.030868 8.51605 0.705554C9.02669 1.15623 9.2948 1.87325 9.23307 2.64583C9.02316 5.25726 7.46124 6.7204 5.36575 6.7204H3.67947C3.39196 6.7204 3.20234 6.9109 3.1212 7.42596L2.65024 10.4246C2.61937 10.6186 2.53559 10.7332 2.38566 10.7474H0.275171C0.0414557 10.7474 -0.0414477 10.571 0.0194063 10.1812L1.53635 0.569734C1.5972 0.183443 1.80975 0 2.22603 0Z" fill="#113984"/>
<path fill-rule="evenodd" clip-rule="evenodd" d="M3.17058 7.12172L3.76765 3.34083C3.81969 3.00922 4.00137 2.85046 4.36297 2.85046H7.77961C8.34494 2.85046 8.80267 2.93866 9.16074 3.10182C8.81766 5.42662 7.31395 6.71778 5.34545 6.71778H3.66182C3.43604 6.71867 3.27024 6.83156 3.17058 7.12172Z" fill="#172C70"/>
</g>
<defs>
<clipPath id="clip0_1078_21">
<rect width="50" height="12.1135" fill="white"/>
</clipPath>
</defs>
</svg>
